<?xml version="1.0" encoding="utf-8"?>
<!-- Generator: Adobe Illustrator 25.0.1, SVG Export Plug-In . SVG Version: 6.00 Build 0)  -->
<svg version="1.0" id="katman_1" xmlns="http://www.w3.org/2000/svg" xmlns:xlink="http://www.w3.org/1999/xlink" x="0px" y="0px"
	 viewBox="0 0 841.9 595.3" style="enable-background:new 0 0 841.9 595.3;" xml:space="preserve">
<style type="text/css">
	.st0{fill:#586371;}
	.st1{fill:#1899D6;}
</style>
<g>
	<g>
		<path class="st0" d="M580.6,350.7c-9.3,0-22.4,0-22.4,0v-11.2c0,0,12,0,20.9,0c8.7,0,13.1-2.2,13.3-7.7c0.2-5.2-1.8-7.1-8.9-10
			l-10.8-4.4c-10.6-4.3-16.2-9.9-16.2-20.3c0-12.9,8.3-17.8,25.9-17.8c9,0,20.5,0,20.5,0v11.2c0,0-12.6,0-20.1,0c-8.4,0-13,1-13,6.7
			c0,3.6,2,5.8,9.1,8.7l9.7,3.9c12.5,5.1,17.3,10,17.3,22.1C605.8,344.8,596.7,350.7,580.6,350.7"/>
	</g>
	<polygon class="st0" points="296,290.4 296,350.6 282.6,350.6 282.6,290.4 260.3,290.4 260.3,279.2 318.3,279.2 318.3,290.4 	"/>
	<polygon class="st0" points="720,290.4 720,350.6 706.6,350.6 706.6,290.4 684.3,290.4 684.3,279.2 742.3,279.2 742.3,290.4 	"/>
	<g>
		<path class="st0" d="M452.3,301.5c0-11-7.3-11.1-24.7-11.1v23.4l7,0c12.2,0,17.7-2.6,17.7-11.8V301.5z M455.5,350.6l-15.6-26.8
			l-12.3,0v26.8h-13.4v-71.4l20.1,0c17.1,0,31.1,3.6,31.1,22.3c0,10.8-4.6,16.8-12.1,20.1l16.7,29H455.5z"/>
	</g>
	<polygon class="st0" points="349.5,279.2 336.2,279.2 336.2,285.9 349.5,292.6 	"/>
	<g>
		<path class="st0" d="M378.6,319.1c0,14.3-3.2,20.3-14.5,20.3c-11.4,0-14.5-5.9-14.5-20.3l0-22.1l-13.4-6.7v31.2
			c0,20.5,9.9,30.2,27.9,30.2c18,0,27.9-9.7,27.9-30.2l0-24.5l-13.4-6.7L378.6,319.1z"/>
	</g>
	<polygon class="st0" points="391.9,279.2 378.5,279.2 378.5,285.9 391.9,292.6 	"/>
	<polygon class="st0" points="659.7,279.2 639.6,279.2 618.4,350.6 631.8,350.6 649.7,290.4 667.5,350.6 680.9,350.6 	"/>
	<polygon class="st0" points="528.1,350.6 501.3,317.2 501.3,350.6 487.9,350.6 487.9,279.2 501.3,279.2 501.3,312.7 528.1,279.2 
		543.7,279.2 514.7,314.9 543.7,350.6 	"/>
	<polygon class="st1" points="150.9,292.6 175.5,283.7 175.5,341.7 150.9,350.6 	"/>
	<polygon class="st1" points="150.9,265.8 150.9,292.6 99.6,270.3 99.6,243.5 	"/>
	<polygon class="st1" points="226.8,279.2 226.8,306 175.5,283.7 175.5,256.9 	"/>
</g>
</svg>
